<?xml version="1.0" encoding="utf-8"?>
<!-- Generator: Adobe Illustrator 22.0.1, SVG Export Plug-In . SVG Version: 6.00 Build 0)  -->
<svg version="1.1" id="Warstwa_1" xmlns="http://www.w3.org/2000/svg" xmlns:xlink="http://www.w3.org/1999/xlink" x="0px" y="0px"
	 viewBox="0 0 26.9 26.9" style="enable-background:new 0 0 26.9 26.9;" xml:space="preserve">
<style type="text/css">
	.st0{fill:#FFFFFF;}
</style>
<g id="ikona_-_język">
	<path class="st0" d="M13.4,26.4c-7.2,0-13-5.8-13-13s5.8-13,13-13s13,5.8,13,13C26.4,20.6,20.6,26.4,13.4,26.4z M13.4,24.7
		c1,0,2.1-0.1,3.1-0.4l-1.3-0.6l-3.6-0.3c-0.1,0-0.2,0-0.2-0.1L9,21.5H5.6C7.7,23.6,10.5,24.7,13.4,24.7z M11.3,2.6L11,2.4
		c-2.8,0.6-5.3,2.3-7,4.8l0.6,0.3c0.1,0,0.2,0.1,0.2,0.2l1.2,1.9c0,0,0.1,0.1,0.1,0.2l0.4,2.7c0,0,0,0.1,0,0.1l-0.2,2.2L7,17.5
		l0.6,0.5l0.7-1.6l0.8-3c0-0.2,0.2-0.3,0.3-0.3l1.8-0.5v-2.4L9.7,9.7c0,0-0.1,0-0.1,0L6.5,8.3C6.3,8.2,6.2,7.9,6.3,7.7c0,0,0,0,0,0
		l1.2-2c0.1-0.1,0.1-0.2,0.2-0.2l3.6-1.2L11.3,2.6L11.3,2.6z M13.4,2.2c-0.4,0-0.9,0-1.3,0.1v2.4C12.1,4.8,12,5,11.8,5L8.1,6.2
		L7.3,7.7l2.6,1.2l1.9,0.5c0.2,0.1,0.3,0.2,0.3,0.4v3.1c0,0.2-0.1,0.4-0.3,0.4l-1.9,0.5l-0.7,2.8c0,0,0,0,0,0.1l-1,2.1
		c-0.1,0.1-0.2,0.2-0.3,0.2c0,0-0.1,0-0.1,0c-0.1,0-0.2,0-0.3-0.1l-1.2-0.9c-0.1-0.1-0.1-0.1-0.2-0.2L5.5,15c0,0,0-0.1,0-0.2
		l0.2-2.3L5.3,9.9l-1-1.7L3.6,8c-2.3,4.1-1.8,9.1,1.2,12.7h4.4c0.1,0,0.2,0,0.2,0.1l2.4,1.7l3.6,0.3c0,0,0.1,0,0.1,0l2.2,1
		c3.6-1.5,6.1-4.7,6.8-8.5l-1,0.1c-0.1,0-0.2,0-0.3-0.1l-1.1-0.8l-0.8,2.1l-0.9,2.1l-1,2.5c-0.1,0.2-0.2,0.3-0.4,0.3
		c-0.1,0-0.1,0-0.2,0l-2.7-1c-0.1,0-0.2-0.1-0.3-0.2c0-0.1,0-0.3,0-0.4l1.3-2.4l0.4-2.5l-0.9-2c0-0.1,0-0.1,0-0.2V9.8
		c0-0.2,0.2-0.4,0.4-0.4c0,0,0,0,0,0h2.5c0.1,0,0.1,0,0.2,0l1.5,0.7V8.2l-1.9-0.5l-2.2,0.6c-0.2,0.1-0.4,0-0.5-0.2l-0.8-1.7
		c-0.1-0.2,0-0.4,0.2-0.6l2.7-1.5c0.1,0,0.1-0.1,0.2-0.1h0.8C18,2.9,15.7,2.2,13.4,2.2z M20.9,5.1h-1.8l-2.3,1.3l0.5,1l2-0.5
		c0.1,0,0.2,0,0.2,0l2.3,0.6c0.2,0,0.3,0.2,0.3,0.4v2.9c0,0.2-0.2,0.4-0.4,0.4c-0.1,0-0.1,0-0.2,0l-2-1h-2v2.5l0.9,2.1
		c0,0.1,0,0.2,0,0.2l-0.4,2.7c0,0.1,0,0.1-0.1,0.2l-1.1,2l1.8,0.6l0.8-2.1l0.9-2.1l1-2.6c0.1-0.2,0.3-0.3,0.6-0.2c0,0,0.1,0,0.1,0.1
		l1.4,1.1l1-0.1c0-0.3,0.1-0.7,0.1-1C24.7,10.2,23.3,7.2,20.9,5.1z"/>
	<path d="M13.4,26.9L13.4,26.9C6,26.9,0,20.9,0,13.4C0,6,6,0,13.4,0s13.4,6,13.4,13.4C26.9,20.8,20.8,26.9,13.4,26.9z M13.4,0.9
		C6.5,0.9,0.9,6.5,0.9,13.4S6.5,26,13.4,26C20.4,26,26,20.4,26,13.4C26,6.5,20.4,0.9,13.4,0.9z M13.5,25.1
		C13.5,25.1,13.5,25.1,13.5,25.1L13.5,25.1C13.4,25.1,13.4,25.1,13.5,25.1c-3.1,0-6-1.2-8.1-3.3l-0.8-0.8h0.1L4.5,21
		c-3.1-3.7-3.6-9-1.3-13.2l0.2-0.3l0,0L3.7,7C5.4,4.4,8,2.7,10.9,2l0.2,0l0.4,0.2l-0.2,0.3l0.4,0l0-0.7l0.4,0
		c0.5-0.1,0.9-0.1,1.4-0.1h0c0,0,0,0,0,0c2.4,0,4.7,0.7,6.6,2.1l1.2,0.8h-0.1l0.1,0.1c2.5,2.2,3.9,5.4,3.9,8.7c0,0.4,0,0.7-0.1,1.1
		l0,0.4l0,0L25,15.4c-0.7,4-3.3,7.3-7.1,8.8l-0.2,0.1l0.1,0l-1.1,0.3C15.6,25,14.6,25.1,13.5,25.1z M13.4,24.3L13.4,24.3
		c0.6,0,1.2,0,1.7-0.1l0,0l-3.5-0.3c-0.1,0-0.3-0.1-0.5-0.2L8.9,22H6.8C8.7,23.5,11,24.3,13.4,24.3C13.4,24.3,13.4,24.3,13.4,24.3z
		 M12,22.1l3.4,0.3c0.1,0,0.2,0,0.3,0.1l2,0.9c3.2-1.4,5.5-4.1,6.2-7.5l-0.4,0c-0.2,0-0.4,0-0.6-0.2l-0.6-0.5l-0.6,1.6L20.8,19
		l-1,2.4c-0.1,0.3-0.4,0.6-0.8,0.6h0c-0.1,0-0.2,0-0.3-0.1L16.1,21c-0.2-0.1-0.4-0.3-0.5-0.5c-0.1-0.3-0.1-0.5,0-0.7l1.3-2.3
		l0.3-2.3l-0.9-1.9c0-0.1-0.1-0.2-0.1-0.4l0-3.1c0-0.5,0.4-0.9,0.9-0.9h2.5c0.1,0,0.3,0,0.4,0.1l0.9,0.4V8.5l-1.4-0.4l-2.1,0.6
		c-0.4,0.1-0.8-0.1-1-0.5l-0.8-1.7c-0.2-0.4,0-0.9,0.4-1.1l2.7-1.5c-1.6-0.8-3.3-1.3-5.1-1.3c0,0,0,0,0,0l0,0c-0.3,0-0.6,0-0.9,0v2
		c0,0.4-0.2,0.7-0.6,0.8L8.4,6.6L7.9,7.5l2.2,1l1.8,0.5c0.4,0.1,0.6,0.5,0.6,0.8v3.1c0,0.4-0.3,0.7-0.6,0.8l-1.6,0.4l-0.7,2.8
		L8.6,19c-0.1,0.3-0.3,0.4-0.6,0.5c-0.1,0-0.1,0-0.2,0c-0.2,0-0.4-0.1-0.5-0.2l-1.1-0.9C6,18.3,5.9,18.1,5.8,18l-0.8-2.9
		c0-0.1,0-0.2,0-0.3l0.2-2.3l-0.3-2.4L4,8.6L3.8,8.5C1.9,12.3,2.4,16.9,5,20.2h4.2c0.2,0,0.4,0.1,0.5,0.2L12,22.1z M17.6,19.7
		l0.9,0.3l0.7-1.7l0.9-2.1l1-2.6c0.2-0.5,0.7-0.7,1.1-0.5c0.1,0,0.1,0.1,0.2,0.1l1.3,1l0.5-0.1c0-0.2,0-0.4,0-0.6c0-2-0.6-4-1.6-5.7
		c0,0.1,0,0.1,0,0.2v2.9c0,0.5-0.4,0.9-0.9,0.9c-0.1,0-0.3,0-0.4-0.1l-1.9-0.9H18v2l0.9,2c0.1,0.2,0.1,0.3,0.1,0.5l-0.4,2.7
		c0,0.1,0,0.2-0.1,0.3L17.6,19.7z M7.4,17.2L7.4,17.2l0.6-1l0.7-3c0.1-0.3,0.3-0.5,0.6-0.6l1.5-0.4v-1.7l-1.4-0.4L6.3,8.7
		C5.9,8.5,5.7,8,5.9,7.5l1.2-2.1C7.2,5.3,7.4,5.1,7.6,5L10.8,4v-1C8.4,3.6,6.2,5,4.7,7l0.1,0.1c0.2,0.1,0.3,0.2,0.4,0.4l1.2,1.9
		c0.1,0.1,0.1,0.2,0.1,0.3L7,12.4c0,0,0,0.1,0,0.2l-0.2,2.2L7.4,17.2z M6.1,12.5L6,14.1L6.1,12.5L6.1,12.5z M19.4,7.3
		C19.4,7.3,19.4,7.3,19.4,7.3l-1.2,0.3L19.4,7.3z M19.4,7.3l0.4,0.1L19.4,7.3C19.4,7.3,19.4,7.3,19.4,7.3z M19.5,6.4
		c0.1,0,0.1,0,0.1,0L22,7c0.1,0,0.2,0.1,0.2,0.1c-0.4-0.6-0.9-1.2-1.5-1.7h-1.5l-1.8,1l0.1,0.3l1.6-0.4C19.3,6.4,19.4,6.4,19.5,6.4z
		 M16.3,6.2L16.3,6.2L16.3,6.2z"/>
</g>
</svg>
