<svg xmlns="http://www.w3.org/2000/svg" width="55" height="35" viewBox="0 0 55 35">
  <metadata><?xpacket begin="﻿" id="W5M0MpCehiHzreSzNTczkc9d"?>
<x:xmpmeta xmlns:x="adobe:ns:meta/" x:xmptk="Adobe XMP Core 5.6-c142 79.160924, 2017/07/13-01:06:39        ">
   <rdf:RDF xmlns:rdf="http://www.w3.org/1999/02/22-rdf-syntax-ns#">
      <rdf:Description rdf:about=""/>
   </rdf:RDF>
</x:xmpmeta>
                                                                                                    
                                                                                                    
                                                                                                    
                                                                                                    
                                                                                                    
                                                                                                    
                                                                                                    
                                                                                                    
                                                                                                    
                                                                                                    
                                                                                                    
                                                                                                    
                                                                                                    
                                                                                                    
                                                                                                    
                                                                                                    
                                                                                                    
                                                                                                    
                                                                                                    
                                                                                                    
                           
<?xpacket end="w"?></metadata>
<defs>
    <style>
      .cls-1 {
        fill: #fff;
        fill-rule: evenodd;
      }
    </style>
  </defs>
  <path id="ikona_-_kontakt" data-name="ikona - kontakt" class="cls-1" d="M50-.01H5a5,5,0,0,0-5,5V30a5,5,0,0,0,5,5H50a5,5,0,0,0,5-5V4.986a5,5,0,0,0-5-5m0,2a3.006,3.006,0,0,1,.825.13L27.475,20.647,4.182,2.117A2.932,2.932,0,0,1,5,1.988H50ZM5,32.994a2.989,2.989,0,0,1-.849-0.136l15.962-12.7L18.51,18.881,2.489,31.626A2.974,2.974,0,0,1,2,30V4.986a2.973,2.973,0,0,1,.5-1.653L27.474,23.2,52.5,3.338A2.976,2.976,0,0,1,53,4.986V30a2.973,2.973,0,0,1-.487,1.626L36.455,18.879l-1.607,1.275,16,12.7a2.955,2.955,0,0,1-.854.139H5Z"/>
</svg>
